<svg height="45px" width="45px" version="1.1" id="Layer_1" xmlns="http://www.w3.org/2000/svg" xmlns:xlink="http://www.w3.org/1999/xlink" 
	 viewBox="0 0 480 480" xml:space="preserve">
<path style="fill:#fff;" d="M426.208,168.036c-1.12,0-42.648,0-42.648,0c0.744-8,1.24-13.624,1.256-18.408
	c0.128-42.672-28.36-82.424-70.032-91.6c-23.752-5.232-46.424-2.6-65.184,7.528C226.712,31.492,188.792,7.9,145.328,5.244
	c-5.592-0.768-11.256-1.528-17.056-1.528C57.432,3.708,0,62.82,0,135.876c0,38.072,15.688,72.232,40.648,96.368
	c22.072,24.488,52.72,40.272,89.008,42.904c0,0,295.432,1.448,296.552,1.448c29.712,0,53.792-22.288,53.792-54.28
	S455.912,168.036,426.208,168.036z"/>
<path style="fill:#6196a1;" d="M392.48,288.036c-0.992,0-37.672,0-37.672,0c0.656-8,1.096-7.976,1.104-12.2
	c0.112-37.696-25.048-70.776-61.856-78.888c-20.984-4.624-41.008-1.28-57.584,7.664c-20.216-30.088-53.72-50.424-92.104-52.768
	c-4.944-0.68-9.944-1.096-15.064-1.096C66.728,150.74,16,203.084,16,267.62c0,33.632,13.856,63.864,35.904,85.184
	c19.496,21.632,46.568,35.608,78.624,37.936c0,0,260.968,1.296,261.96,1.296c26.24,0,47.52-23.736,47.52-52
	C440,311.772,418.728,288.036,392.48,288.036z"/>
<path id="SVGCleanerId_3" style="fill:#00b7ff;" d="M81.992,476.284c-1.36,0-2.736-0.344-3.992-1.072
	c-3.832-2.208-5.144-7.104-2.928-10.928l28-48.496c2.208-3.832,7.112-5.144,10.928-2.928c3.832,2.208,5.144,7.104,2.928,10.928
	l-28,48.496C87.448,474.852,84.76,476.284,81.992,476.284z"/>
<path id="SVGCleanerId_4" style="fill:#00b7ff;" d="M225.992,476.284c-1.36,0-2.736-0.344-3.992-1.072
	c-3.832-2.208-5.144-7.104-2.928-10.928l28-48.496c2.208-3.832,7.112-5.144,10.928-2.928c3.832,2.208,5.144,7.104,2.928,10.928
	l-28,48.496C231.448,474.852,228.76,476.284,225.992,476.284z"/>
<path id="SVGCleanerId_5" style="fill:#00b7ff;" d="M273.992,476.284c-1.36,0-2.736-0.344-3.992-1.072
	c-3.832-2.208-5.144-7.104-2.928-10.928l28-48.496c2.208-3.832,7.104-5.144,10.928-2.928c3.832,2.208,5.144,7.104,2.928,10.928
	l-28,48.496C279.448,474.852,276.76,476.284,273.992,476.284z"/>
<g>
	<path id="SVGCleanerId_3_1_" style="fill:#00b7ff;" d="M81.992,476.284c-1.36,0-2.736-0.344-3.992-1.072
		c-3.832-2.208-5.144-7.104-2.928-10.928l28-48.496c2.208-3.832,7.112-5.144,10.928-2.928c3.832,2.208,5.144,7.104,2.928,10.928
		l-28,48.496C87.448,474.852,84.76,476.284,81.992,476.284z"/>
</g>
<g>
	<path id="SVGCleanerId_4_1_" style="fill:#00b7ff;" d="M225.992,476.284c-1.36,0-2.736-0.344-3.992-1.072
		c-3.832-2.208-5.144-7.104-2.928-10.928l28-48.496c2.208-3.832,7.112-5.144,10.928-2.928c3.832,2.208,5.144,7.104,2.928,10.928
		l-28,48.496C231.448,474.852,228.76,476.284,225.992,476.284z"/>
</g>
<g>
	<path id="SVGCleanerId_5_1_" style="fill:#00b7ff;" d="M273.992,476.284c-1.36,0-2.736-0.344-3.992-1.072
		c-3.832-2.208-5.144-7.104-2.928-10.928l28-48.496c2.208-3.832,7.104-5.144,10.928-2.928c3.832,2.208,5.144,7.104,2.928,10.928
		l-28,48.496C279.448,474.852,276.76,476.284,273.992,476.284z"/>
</g>
</svg>